# xmcd
#
# Track frame offsets:
#	150
#	10947
#	26027
#	39175
#	57265
#	67580
#	77092
#	90010
#	104000
#	115835
#	131582
#	143025
#	155617
#	165922
#	178680
#	192395
#	208405
#	224737
#	238652
#	251755
#
# Disc length: 3654 seconds
#
# Revision: 2
# Processed by: cddbd v1.5.1PL2 Copyright (c) Steve Scherf et al.
# Submitted via: SynApp - FreeCDDB Version: 2.1
#
DISCID=130e4414
DTITLE=Mega Country (8/10) - Mega Country (8/10)
DYEAR=1998
DGENRE=Country
TTITLE0=The Everly Brothers - Til I Kissed You
TTITLE1=The Amazing Rhythm Aces - Third Rate Romance 1994
TTITLE2=Lynn Anderson - Rose Garden
TTITLE3=Rick Nelson - Garden Party
TTITLE4=George Hamilton IV - Abilene
TTITLE5=Merle Haggard - The Ballad Of Bonnie And Clyde
TTITLE6=Tammy Wynette - Womanhood
TTITLE7=Conway Twitty - Fifteen Years Ago
TTITLE8=Charlie Rich - Rollin' With The Flow
TTITLE9=Mickey Gilley - Fool For Your Love
TTITLE10=Sandy Posey - Single Girl
TTITLE11=Bill Anderson - Po' Follks
TTITLE12=Loretta Lynn - Out Of My Head And Back In My Bed
TTITLE13=Porter Wagoner - Carroll County Accident
TTITLE14=Billy Walker - Funny How Time Slips Away
TTITLE15=Brenda Lee - Johnny One Time
TTITLE16=Charley Pride - Me And Bobby Mc Gee
TTITLE17=Roy Clark - Honeymoon Feeling
TTITLE18=Nancy Peppers - Watch Me Fall Apart
TTITLE19=Ed Bruce - The Last Cowboy Song
EXTD=
EXTT0=
EXTT1=
EXTT2=
EXTT3=
EXTT4=
EXTT5=
EXTT6=
EXTT7=
EXTT8=
EXTT9=
EXTT10=
EXTT11=
EXTT12=
EXTT13=
EXTT14=
EXTT15=
EXTT16=
EXTT17=
EXTT18=
EXTT19=
PLAYORDER=
